<svg width="25" height="25" viewBox="0 0 25 25" fill="none" xmlns="http://www.w3.org/2000/svg">
<g clip-path="url(#clip0_16_72)">
<path d="M25 12.5C25 5.59644 19.4036 0 12.5 0C5.59644 0 0 5.59644 0 12.5C0 19.4036 5.59644 25 12.5 25C19.4036 25 25 19.4036 25 12.5Z" fill="#D65A31"/>
<path d="M13.1944 12.1528C13.1944 11.9445 13.3333 11.8056 13.5416 11.8056H21.875C22.0833 11.8056 22.2222 11.9445 22.2222 12.1528C22.2222 12.3611 22.0833 12.5 21.875 12.5H13.5416C13.3333 12.5 13.1944 12.3611 13.1944 12.1528ZM2.08331 12.1528C2.08331 11.9445 2.2222 11.8056 2.43054 11.8056H10.7639C10.9722 11.8056 11.1111 11.9445 11.1111 12.1528C11.1111 12.3611 10.9722 12.5 10.7639 12.5H2.43054C2.2222 12.5 2.08331 12.3611 2.08331 12.1528ZM12.1528 2.08334C12.3611 2.08334 12.5 2.22223 12.5 2.43057V21.875C12.5 22.0833 12.3611 22.2222 12.1528 22.2222C11.9444 22.2222 11.8055 22.0833 11.8055 21.875V2.43057C11.8055 2.22223 11.9444 2.08334 12.1528 2.08334Z" fill="#FEFDED"/>
</g>
<defs>
<clipPath id="clip0_16_72">
<rect width="25" height="25" fill="white"/>
</clipPath>
</defs>
</svg>
