<svg width="805" height="100" viewBox="0 0 805 100" fill="none" xmlns="http://www.w3.org/2000/svg">
<path d="M64.9305 51.7779C66.0879 51.4614 68.7983 50.7183 70.0582 47.2107L72.6539 39.9848L73.6979 40.3205C74.1759 40.4745 74.6998 40.2303 74.8625 39.7778L76.2551 35.9011C76.4179 35.4486 76.1598 34.9529 75.6814 34.7991L42.0313 23.9679C41.5536 23.8141 41.0293 24.0585 40.8667 24.5108L39.4741 28.3873C39.3118 28.8396 39.5701 29.3355 40.0476 29.4895L41.0917 29.8256L38.4494 37.1831C37.2017 40.6564 38.0272 41.8293 39.5927 43.6043L46.4021 51.3232L45.643 53.4362C43.0375 53.9715 36.2288 55.3758 35.3122 55.6265C34.155 55.9434 31.444 56.6857 30.1839 60.1938L27.9494 66.4154L26.9051 66.0795C26.4276 65.9257 25.903 66.1697 25.7403 66.6222L24.3483 70.4987C24.1856 70.9512 24.4439 71.4469 24.9218 71.6012L58.5721 82.4325C59.0495 82.5862 59.5738 82.3419 59.7365 81.8892L61.1282 78.0133C61.2912 77.5608 61.0332 77.0647 60.5547 76.9107L59.5111 76.5746L61.7924 70.2213C63.0401 66.7484 62.2154 65.5749 60.6494 63.8007L53.8404 56.0816L54.5989 53.9686C57.2046 53.4335 64.0133 52.0294 64.9305 51.7779ZM50.7095 57.412L58.1142 65.805C58.6822 66.449 58.9831 66.8005 59.0647 67.1224C59.1628 67.509 59.0316 68.1936 58.6648 69.214L56.3831 75.5677L31.0774 67.4225L33.3116 61.201C34.0171 59.2373 35.2961 58.8868 36.2297 58.631C36.9598 58.4313 43.2233 57.1313 47.2554 56.3057C47.8219 56.1897 48.2833 55.8003 48.47 55.2805L49.8286 51.4983C50.0138 50.9817 49.902 50.4115 49.5328 49.9928L42.1506 41.625L42.1281 41.5992C41.5599 40.9552 41.259 40.6037 41.1776 40.2816C41.0797 39.895 41.2103 39.2111 41.5773 38.19L44.2198 30.8325L69.526 38.9777L66.9301 46.2038C66.225 48.1679 64.9464 48.518 64.0126 48.7738C63.2829 48.9738 57.0192 50.2741 52.9876 51.0991C52.4209 51.2153 51.959 51.6043 51.7721 52.1245L50.4139 55.9063C50.2283 56.4231 50.3408 56.9929 50.7095 57.412Z" fill="#393E46"/>
<path d="M70.7015 87.2352C69.9629 87.6314 69.2012 88.0108 68.4391 88.3626C68.3157 88.4196 68.1967 88.482 68.0816 88.5494C67.9594 88.5895 67.8378 88.6363 67.717 88.6894C64.4088 90.1496 60.9592 91.1776 57.4056 91.7739C57.3601 91.78 57.3146 91.7825 57.2687 91.7903C56.4309 91.9306 55.5783 92.0474 54.735 92.1388C54.7259 92.1402 54.7166 92.1423 54.7074 92.1433C53.1588 92.305 51.5928 92.3876 50.0105 92.3876C31.7656 92.3876 16.206 81.3056 10.4409 65.8802C10.3541 65.6448 10.2666 65.41 10.1842 65.1742C8.80222 61.2404 8.05164 57.0362 8.05164 52.6687C8.05164 48.2921 8.80549 44.0786 10.1933 40.1376C10.2235 40.0515 10.2527 39.9661 10.2834 39.8798C10.3663 39.6503 10.452 39.4217 10.5394 39.1938C10.5801 39.0867 10.6212 38.9802 10.663 38.8739C15.4537 26.6679 26.4117 17.2777 39.9336 14.1105C39.9421 14.1086 39.9508 14.108 39.9593 14.1061C40.1592 14.0592 40.3607 14.0135 40.5624 13.9694C40.585 13.9646 40.6068 13.9568 40.6285 13.9517C43.5784 13.3116 46.6458 12.9674 49.7934 12.9522L49.8297 17.0359C49.8408 18.3037 50.6865 18.6699 51.7077 17.8504L60.8204 10.5385C61.8414 9.71905 61.8305 8.39048 60.7936 7.58729L51.553 0.421161C50.517 -0.381826 49.6785 -0.00226541 49.6898 1.26534L49.7262 5.34103C36.4768 5.41043 24.0318 10.3247 14.6548 19.2008C13.731 20.0753 12.8495 20.9786 12.0082 21.9072C12.0032 21.9125 11.9979 21.9169 11.9927 21.9226C11.9616 21.9568 11.9322 21.9925 11.9016 22.0266C4.52088 30.2252 0.359843 40.4434 0.0332867 51.2837C0.025237 51.3679 0.0156643 51.4515 0.0134887 51.5376C0.0045688 51.8992 0 52.2669 0 52.6304C0 53.2264 0.012836 53.8304 0.03655 54.4262C0.0391607 54.496 0.0487332 54.5642 0.0559127 54.6328C0.478848 64.5096 4.08663 73.8476 10.4163 81.5822C10.4378 81.6087 10.455 81.6372 10.4768 81.6637C11.0951 82.4191 11.7488 83.1675 12.4174 83.8875C12.4605 83.9339 12.5077 83.974 12.5521 84.0181C13.2289 84.7406 13.9277 85.4482 14.655 86.1365C22.0788 93.1642 31.4262 97.708 41.5727 99.3311C41.6036 99.3364 41.6347 99.3422 41.6656 99.3476C41.6887 99.3509 41.7115 99.3523 41.7341 99.3556C44.4438 99.7803 47.2095 100 50.0105 100C57.3816 100 64.4819 98.5153 71.1146 95.5886C71.2576 95.5256 71.3933 95.4533 71.5241 95.3769C71.6727 95.3285 71.8187 95.2711 71.9627 95.2045C72.8727 94.784 73.7817 94.3321 74.663 93.8599C76.5954 92.824 77.2755 90.5017 76.1814 88.6725C75.0868 86.8431 72.6334 86.2001 70.7015 87.2352Z" fill="#393E46"/>
<path d="M84.8518 30.5158C85.6278 31.6091 86.8983 32.1992 88.1922 32.1992C88.9632 32.1992 89.7434 31.9897 90.4313 31.5519C92.2742 30.3794 92.7642 28.015 91.5256 26.2702C90.9602 25.4742 90.3628 24.6848 89.7468 23.9242C88.398 22.2544 85.8747 21.9368 84.111 23.2137C82.3474 24.491 82.0115 26.88 83.3613 28.5492C83.8771 29.1878 84.3786 29.8495 84.8518 30.5158Z" fill="#393E46"/>
<path d="M89.9579 40.5114C90.2163 41.2757 90.4537 42.0593 90.6643 42.8409C91.1279 44.5626 92.7633 45.7079 94.5577 45.7079C94.886 45.7079 95.2206 45.6693 95.5535 45.589C97.7054 45.07 99.0053 42.9976 98.4568 40.961C98.2066 40.0316 97.9238 39.0992 97.6157 38.1898C96.9391 36.188 94.6756 35.0843 92.5612 35.7256C90.4461 36.3669 89.2806 38.5096 89.9579 40.5114Z" fill="#393E46"/>
<path d="M87.3968 78.2887C85.7163 76.914 83.1781 77.0884 81.7256 78.6783C81.1696 79.2871 80.5874 79.887 79.9943 80.4612C78.4422 81.9648 78.4718 84.3744 80.0605 85.8438C80.8426 86.5673 81.8568 86.9277 82.8698 86.9277C83.9147 86.9277 84.9588 86.5443 85.7461 85.7814C86.4523 85.0971 87.1468 84.3826 87.8084 83.6575C89.2602 82.067 89.0761 79.6634 87.3968 78.2887Z" fill="#393E46"/>
<path d="M96.0993 50.1967C93.8761 50.1335 92.0262 51.7864 91.9605 53.8873C91.9355 54.6919 91.883 55.5058 91.8051 56.3061C91.6022 58.3991 93.2304 60.252 95.4416 60.4442C95.5665 60.4551 95.6905 60.4602 95.8139 60.4602C97.8677 60.4602 99.6218 58.9768 99.8128 57.002C99.9055 56.0466 99.9682 55.0756 99.9982 54.1148C100.064 52.0144 98.3191 50.2595 96.0993 50.1967Z" fill="#393E46"/>
<path d="M94.3112 64.9559C92.2425 64.1891 89.9104 65.1548 89.1009 67.1125C88.7913 67.8612 88.453 68.6118 88.0951 69.3425C87.1618 71.2496 88.0383 73.5117 90.0532 74.3954C90.6008 74.6356 91.1751 74.7491 91.741 74.7491C93.2591 74.7491 94.7115 73.9314 95.3916 72.5421C95.8172 71.6722 96.2205 70.7794 96.5889 69.8877C97.3986 67.9306 96.3787 65.7224 94.3112 64.9559Z" fill="#393E46"/>
<path d="M80.6185 19.9641C81.9402 18.2745 81.5649 15.8911 79.78 14.6401C78.9674 14.0703 78.1248 13.5169 77.2759 12.9942C75.4143 11.8485 72.9239 12.3478 71.7136 14.11C70.5035 15.8721 71.0307 18.2294 72.8919 19.3755C73.6053 19.8142 74.3123 20.2794 74.9952 20.758C75.7145 21.262 76.5532 21.5054 77.3849 21.5054C78.6154 21.5054 79.8303 20.9722 80.6185 19.9641Z" fill="#393E46"/>
<path d="M122.008 79V28.888H142.96C146.464 28.888 149.488 29.536 152.032 30.832C154.96 32.32 157.288 34.456 159.016 37.24C160.744 39.976 161.608 43 161.608 46.312C161.608 49.624 160.744 52.672 159.016 55.456C157.336 58.24 155.032 60.376 152.104 61.864C149.608 63.16 146.56 63.808 142.96 63.808H135.112V79H122.008ZM202.809 30.544C205.689 31.888 207.945 33.88 209.577 36.52C211.257 39.16 212.097 42.088 212.097 45.304C212.097 49.048 210.945 52.408 208.641 55.384C206.385 58.312 203.481 60.256 199.929 61.216L212.673 79H209.505L197.193 61.72L194.889 61.792H176.817V79H174.153V28.888H193.233C195.345 28.888 197.145 29.032 198.633 29.32C200.169 29.56 201.561 29.968 202.809 30.544ZM195.609 59.128C198.105 59.128 200.409 58.504 202.521 57.256C204.633 56.008 206.313 54.328 207.561 52.216C208.809 50.104 209.433 47.8 209.433 45.304C209.433 42.52 208.689 40 207.201 37.744C205.761 35.488 203.745 33.808 201.153 32.704C199.281 31.936 196.641 31.552 193.233 31.552H176.817V59.128H195.609ZM245.234 27.808C248.978 27.808 252.434 28.744 255.602 30.616C258.77 32.44 261.266 34.936 263.09 38.104C264.962 41.272 265.898 44.728 265.898 48.472V59.416C265.898 63.16 264.962 66.616 263.09 69.784C261.266 72.952 258.77 75.472 255.602 77.344C252.434 79.168 248.978 80.08 245.234 80.08C241.49 80.08 238.034 79.168 234.866 77.344C231.698 75.472 229.178 72.952 227.306 69.784C225.482 66.616 224.57 63.16 224.57 59.416V48.472C224.57 44.728 225.482 41.272 227.306 38.104C229.178 34.936 231.698 32.44 234.866 30.616C238.034 28.744 241.49 27.808 245.234 27.808ZM227.234 59.416C227.234 62.68 228.026 65.704 229.61 68.488C231.242 71.224 233.426 73.408 236.162 75.04C238.946 76.624 241.97 77.416 245.234 77.416C248.498 77.416 251.498 76.624 254.234 75.04C257.018 73.408 259.202 71.224 260.786 68.488C262.418 65.704 263.234 62.68 263.234 59.416V48.472C263.234 45.208 262.418 42.208 260.786 39.472C259.202 36.688 257.018 34.504 254.234 32.92C251.498 31.288 248.498 30.472 245.234 30.472C241.97 30.472 238.946 31.288 236.162 32.92C233.426 34.504 231.242 36.688 229.61 39.472C228.026 42.208 227.234 45.208 227.234 48.472V59.416ZM281.323 59.848C281.323 63.016 282.115 65.944 283.699 68.632C285.331 71.32 287.491 73.456 290.179 75.04C292.915 76.624 295.867 77.416 299.035 77.416C302.299 77.416 305.251 76.768 307.891 75.472C310.531 74.176 312.595 72.376 314.083 70.072C315.619 67.768 316.411 65.176 316.459 62.296H319.051C319.051 65.608 318.163 68.632 316.387 71.368C314.659 74.056 312.259 76.192 309.187 77.776C306.163 79.312 302.779 80.08 299.035 80.08C295.387 80.08 292.003 79.168 288.883 77.344C285.763 75.52 283.291 73.072 281.467 70C279.643 66.88 278.731 63.496 278.731 59.848V48.04C278.731 44.392 279.619 41.032 281.395 37.96C283.219 34.84 285.667 32.368 288.739 30.544C291.859 28.72 295.243 27.808 298.891 27.808C302.587 27.808 305.947 28.6 308.971 30.184C312.043 31.72 314.467 33.856 316.243 36.592C318.019 39.28 318.907 42.28 318.907 45.592H316.315C316.267 42.712 315.475 40.12 313.939 37.816C312.403 35.512 310.315 33.712 307.675 32.416C305.083 31.12 302.155 30.472 298.891 30.472C295.723 30.472 292.795 31.264 290.107 32.848C287.419 34.432 285.283 36.568 283.699 39.256C282.115 41.944 281.323 44.872 281.323 48.04V59.848ZM362.7 30.544C365.58 31.888 367.836 33.88 369.468 36.52C371.148 39.16 371.988 42.088 371.988 45.304C371.988 49.048 370.836 52.408 368.532 55.384C366.276 58.312 363.372 60.256 359.82 61.216L372.564 79H369.396L357.084 61.72L354.78 61.792H336.708V79H334.044V28.888H353.124C355.236 28.888 357.036 29.032 358.524 29.32C360.06 29.56 361.452 29.968 362.7 30.544ZM355.5 59.128C357.996 59.128 360.3 58.504 362.412 57.256C364.524 56.008 366.204 54.328 367.452 52.216C368.7 50.104 369.324 47.8 369.324 45.304C369.324 42.52 368.58 40 367.092 37.744C365.652 35.488 363.636 33.808 361.044 32.704C359.172 31.936 356.532 31.552 353.124 31.552H336.708V59.128H355.5ZM403.756 28.888H406.564L427.156 79H424.276L417.508 62.44H392.812L385.972 79H383.164L403.756 28.888ZM393.892 59.848H416.428L405.124 32.344L393.892 59.848ZM459.501 55.024C455.421 54.208 452.085 53.32 449.493 52.36C446.949 51.352 444.933 50.008 443.445 48.328C442.005 46.6 441.285 44.392 441.285 41.704C441.285 38.92 442.005 36.472 443.445 34.36C444.933 32.248 446.997 30.616 449.637 29.464C452.325 28.312 455.421 27.736 458.925 27.736C462.285 27.736 465.357 28.456 468.141 29.896C470.973 31.288 473.205 33.256 474.837 35.8C476.469 38.344 477.285 41.248 477.285 44.512H474.621C474.621 41.68 473.925 39.184 472.533 37.024C471.141 34.864 469.245 33.208 466.845 32.056C464.445 30.856 461.781 30.256 458.853 30.256C456.261 30.256 453.837 30.664 451.581 31.48C449.325 32.296 447.477 33.544 446.037 35.224C444.645 36.904 443.949 39.016 443.949 41.56C443.949 43.864 444.621 45.712 445.965 47.104C447.309 48.448 449.061 49.48 451.221 50.2C453.381 50.92 456.405 51.688 460.293 52.504C464.229 53.32 467.277 54.112 469.437 54.88C471.645 55.6 473.493 56.824 474.981 58.552C476.517 60.28 477.285 62.704 477.285 65.824C477.285 68.944 476.445 71.584 474.765 73.744C473.133 75.856 470.949 77.44 468.213 78.496C465.477 79.552 462.501 80.08 459.285 80.08C455.301 80.08 451.797 79.336 448.773 77.848C445.749 76.36 443.421 74.272 441.789 71.584C440.205 68.848 439.413 65.728 439.413 62.224H442.077C442.077 65.296 442.749 67.984 444.093 70.288C445.485 72.592 447.477 74.392 450.069 75.688C452.661 76.936 455.733 77.56 459.285 77.56C463.701 77.56 467.349 76.504 470.229 74.392C473.157 72.28 474.621 69.4 474.621 65.752C474.621 63.256 473.997 61.336 472.749 59.992C471.501 58.648 469.917 57.688 467.997 57.112C466.125 56.488 463.293 55.792 459.501 55.024ZM531.95 28.888V31.552H513.014V79H510.422V31.552H491.486V28.888H531.95ZM581.287 28.888V31.552H566.311V76.336H581.287V79H548.815V76.336H563.719V31.552H548.815V28.888H581.287ZM598.728 79V28.888H601.536L636.528 62.872V28.888H639.192V79H636.528V66.616L601.392 32.344V79H598.728ZM670.241 28.888H673.049L693.641 79H690.761L683.993 62.44H659.297L652.457 79H649.649L670.241 28.888ZM660.377 59.848H682.913L671.609 32.344L660.377 59.848ZM735.778 30.544C738.658 31.888 740.914 33.88 742.546 36.52C744.226 39.16 745.066 42.088 745.066 45.304C745.066 49.048 743.914 52.408 741.61 55.384C739.354 58.312 736.45 60.256 732.898 61.216L745.642 79H742.474L730.162 61.72L727.858 61.792H709.786V79H707.122V28.888H726.202C728.314 28.888 730.114 29.032 731.602 29.32C733.138 29.56 734.53 29.968 735.778 30.544ZM728.578 59.128C731.074 59.128 733.378 58.504 735.49 57.256C737.602 56.008 739.282 54.328 740.53 52.216C741.778 50.104 742.402 47.8 742.402 45.304C742.402 42.52 741.658 40 740.17 37.744C738.73 35.488 736.714 33.808 734.122 32.704C732.25 31.936 729.61 31.552 726.202 31.552H709.786V59.128H728.578ZM760.923 28.888H796.203V31.552H763.587V51.856H791.955V54.52H763.587V76.336H796.203V79H760.923V28.888Z" fill="#222831"/>
</svg>
